<?xml version="1.0" encoding="UTF-8"?>
<svg width="1100" height="820" viewBox="0 0 1100 820" xmlns="http://www.w3.org/2000/svg" font-family="'Segoe UI', Arial, sans-serif">
  <defs>
    <linearGradient id="bg2" x1="0%" y1="0%" x2="100%" y2="100%">
      <stop offset="0%" style="stop-color:#0a0a1a"/>
      <stop offset="100%" style="stop-color:#1a1a3e"/>
    </linearGradient>
    <linearGradient id="hdr2" x1="0%" y1="0%" x2="100%" y2="0%">
      <stop offset="0%" style="stop-color:#f59e0b"/>
      <stop offset="50%" style="stop-color:#ef4444"/>
      <stop offset="100%" style="stop-color:#8b5cf6"/>
    </linearGradient>
    <!-- Speed bars -->
    <linearGradient id="speedGrad" x1="0%" y1="0%" x2="100%" y2="0%">
      <stop offset="0%" style="stop-color:#ef4444"/>
      <stop offset="100%" style="stop-color:#f97316"/>
    </linearGradient>
    <!-- Cost bars -->
    <linearGradient id="costGrad" x1="0%" y1="0%" x2="100%" y2="0%">
      <stop offset="0%" style="stop-color:#f59e0b"/>
      <stop offset="100%" style="stop-color:#fbbf24"/>
    </linearGradient>
    <!-- Quality bars -->
    <linearGradient id="qualGrad" x1="0%" y1="0%" x2="100%" y2="0%">
      <stop offset="0%" style="stop-color:#6c63ff"/>
      <stop offset="100%" style="stop-color:#a78bfa"/>
    </linearGradient>
    <!-- Balanced bars -->
    <linearGradient id="balGrad" x1="0%" y1="0%" x2="100%" y2="0%">
      <stop offset="0%" style="stop-color:#10b981"/>
      <stop offset="100%" style="stop-color:#34d399"/>
    </linearGradient>
    <filter id="glow2">
      <feGaussianBlur stdDeviation="4" result="coloredBlur"/>
      <feMerge>
        <feMergeNode in="coloredBlur"/>
        <feMergeNode in="SourceGraphic"/>
      </feMerge>
    </filter>
  </defs>

  <!-- Background -->
  <rect width="1100" height="820" fill="url(#bg2)"/>
  <pattern id="dots" width="30" height="30" patternUnits="userSpaceOnUse">
    <circle cx="15" cy="15" r="1" fill="rgba(255,255,255,0.04)"/>
  </pattern>
  <rect width="1100" height="820" fill="url(#dots)"/>

  <!-- Header -->
  <rect x="0" y="0" width="1100" height="72" fill="url(#hdr2)" opacity="0.9"/>
  <text x="550" y="28" text-anchor="middle" fill="white" font-size="23" font-weight="700" letter-spacing="1">Model Scoring &amp; Priority Visualization</text>
  <text x="550" y="52" text-anchor="middle" fill="rgba(255,255,255,0.85)" font-size="13" letter-spacing="2">LOW-LATENCY MODEL ROUTER · SCORE BREAKDOWN BY PRIORITY MODE</text>

  <!-- ===== SECTION: HOW SCORING WORKS ===== -->
  <text x="50" y="108" fill="#fbbf24" font-size="16" font-weight="700">How Composite Scores Are Calculated</text>

  <!-- Score formula visual -->
  <rect x="50" y="118" width="490" height="90" rx="10" fill="rgba(255,255,255,0.05)" stroke="rgba(255,255,255,0.15)" stroke-width="1"/>

  <!-- Latency component -->
  <rect x="65" y="132" width="130" height="60" rx="8" fill="rgba(239,68,68,0.2)" stroke="#ef4444" stroke-width="1.5"/>
  <text x="130" y="153" text-anchor="middle" fill="#fca5a5" font-size="11" font-weight="600">LATENCY SCORE</text>
  <text x="130" y="170" text-anchor="middle" fill="white" font-size="12" font-family="monospace">1 - (lat/max_lat)</text>
  <text x="130" y="186" text-anchor="middle" fill="rgba(255,255,255,0.5)" font-size="10">Lower = faster</text>

  <text x="210" y="165" text-anchor="middle" fill="rgba(255,255,255,0.5)" font-size="18">×</text>
  <text x="210" y="182" text-anchor="middle" fill="#fca5a5" font-size="11">w_lat</text>

  <!-- Cost component -->
  <text x="240" y="165" text-anchor="middle" fill="rgba(255,255,255,0.5)" font-size="18">+</text>

  <rect x="255" y="132" width="130" height="60" rx="8" fill="rgba(245,158,11,0.2)" stroke="#f59e0b" stroke-width="1.5"/>
  <text x="320" y="153" text-anchor="middle" fill="#fcd34d" font-size="11" font-weight="600">COST SCORE</text>
  <text x="320" y="170" text-anchor="middle" fill="white" font-size="12" font-family="monospace">1 - (cost/max_cost)</text>
  <text x="320" y="186" text-anchor="middle" fill="rgba(255,255,255,0.5)" font-size="10">Lower = cheaper</text>

  <text x="400" y="165" text-anchor="middle" fill="rgba(255,255,255,0.5)" font-size="18">×</text>
  <text x="400" y="182" text-anchor="middle" fill="#fcd34d" font-size="11">w_cost</text>

  <text x="430" y="165" text-anchor="middle" fill="rgba(255,255,255,0.5)" font-size="18">+</text>

  <!-- Quality component -->
  <rect x="445" y="132" width="80" height="60" rx="8" fill="rgba(108,99,255,0.2)" stroke="#6c63ff" stroke-width="1.5"/>
  <text x="485" y="153" text-anchor="middle" fill="#a78bfa" font-size="11" font-weight="600">QUALITY</text>
  <text x="485" y="170" text-anchor="middle" fill="white" font-size="12" font-family="monospace">score</text>
  <text x="485" y="186" text-anchor="middle" fill="rgba(255,255,255,0.5)" font-size="10">Higher = better</text>

  <!-- Normalization note -->
  <rect x="560" y="118" width="460" height="90" rx="10" fill="rgba(255,255,255,0.04)" stroke="rgba(255,255,255,0.1)" stroke-width="1"/>
  <text x="790" y="144" text-anchor="middle" fill="rgba(255,255,255,0.8)" font-size="12" font-weight="600">Normalization Details</text>
  <text x="580" y="166" fill="rgba(255,255,255,0.6)" font-size="11">• Latency normalized: model_lat / max_lat in candidate set</text>
  <text x="580" y="184" fill="rgba(255,255,255,0.6)" font-size="11">• Cost = prompt_cost/1k + completion_cost/1k (total per 1k tokens)</text>
  <text x="580" y="202" fill="rgba(255,255,255,0.6)" font-size="11">• Weights auto-normalized to sum=1.0 via RoutingWeights.normalize()</text>

  <!-- ===== SECTION: BAR CHARTS FOR EACH PRIORITY ===== -->

  <!-- Model labels (shared left column) -->
  <text x="50" y="250" fill="rgba(255,255,255,0.8)" font-size="14" font-weight="700">Composite Scores Per Priority Mode</text>
  <text x="50" y="272" fill="rgba(255,255,255,0.4)" font-size="11">(higher bar = model more likely to be selected)</text>

  <!-- Y-axis labels -->
  <text x="155" y="302" text-anchor="end" fill="rgba(255,255,255,0.6)" font-size="10">Gemini Flash Lite</text>
  <text x="155" y="352" text-anchor="end" fill="rgba(255,255,255,0.6)" font-size="10">GPT-5.4 Mini</text>
  <text x="155" y="402" text-anchor="end" fill="rgba(255,255,255,0.6)" font-size="10">Claude Sonnet 4.6</text>
  <text x="155" y="452" text-anchor="end" fill="rgba(255,255,255,0.6)" font-size="10">Gemini 3.1 Pro</text>
  <text x="155" y="502" text-anchor="end" fill="rgba(255,255,255,0.6)" font-size="10">GPT-5.4</text>
  <text x="155" y="552" text-anchor="end" fill="rgba(255,255,255,0.6)" font-size="10">Claude Opus 4.7</text>

  <!-- Grid lines -->
  <line x1="160" y1="285" x2="1070" y2="285" stroke="rgba(255,255,255,0.05)" stroke-width="1"/>
  <line x1="160" y1="335" x2="1070" y2="335" stroke="rgba(255,255,255,0.05)" stroke-width="1"/>
  <line x1="160" y1="385" x2="1070" y2="385" stroke="rgba(255,255,255,0.05)" stroke-width="1"/>
  <line x1="160" y1="435" x2="1070" y2="435" stroke="rgba(255,255,255,0.05)" stroke-width="1"/>
  <line x1="160" y1="485" x2="1070" y2="485" stroke="rgba(255,255,255,0.05)" stroke-width="1"/>
  <line x1="160" y1="535" x2="1070" y2="535" stroke="rgba(255,255,255,0.05)" stroke-width="1"/>
  <line x1="160" y1="565" x2="1070" y2="565" stroke="rgba(255,255,255,0.05)" stroke-width="1"/>

  <!-- SPEED priority scores: Gemini Flash(0.76), GPT Mini(0.49), Claude Sonnet(0.35), Gemini Pro(0.27), GPT-5.4(0.23), Opus(0.14). Max bar width = 200px at score 1.0 -->
  <!-- Column headers -->
  <text x="260" y="282" text-anchor="middle" fill="#f97316" font-size="12" font-weight="700">SPEED</text>
  <text x="460" y="282" text-anchor="middle" fill="#fbbf24" font-size="12" font-weight="700">COST</text>
  <text x="660" y="282" text-anchor="middle" fill="#a78bfa" font-size="12" font-weight="700">QUALITY</text>
  <text x="870" y="282" text-anchor="middle" fill="#34d399" font-size="12" font-weight="700">BALANCED</text>

  <!-- Background track bars -->
  <!-- SPEED column tracks -->
  <rect x="165" y="290" width="190" height="18" rx="9" fill="rgba(255,255,255,0.06)"/>
  <rect x="165" y="340" width="190" height="18" rx="9" fill="rgba(255,255,255,0.06)"/>
  <rect x="165" y="390" width="190" height="18" rx="9" fill="rgba(255,255,255,0.06)"/>
  <rect x="165" y="440" width="190" height="18" rx="9" fill="rgba(255,255,255,0.06)"/>
  <rect x="165" y="490" width="190" height="18" rx="9" fill="rgba(255,255,255,0.06)"/>
  <rect x="165" y="540" width="190" height="18" rx="9" fill="rgba(255,255,255,0.06)"/>

  <!-- SPEED fill bars (score × 190) -->
  <!-- Gemini Flash: speed score ≈ 0.76 → 144px, winner! -->
  <rect x="165" y="290" width="144" height="18" rx="9" fill="url(#speedGrad)" filter="url(#glow2)"/>
  <text x="315" y="303" fill="#f97316" font-size="10" font-weight="700">0.76 ★</text>
  <!-- GPT Mini: 0.49 → 93px -->
  <rect x="165" y="340" width="93" height="18" rx="9" fill="url(#speedGrad)" opacity="0.7"/>
  <text x="264" y="353" fill="rgba(255,255,255,0.6)" font-size="10">0.49</text>
  <!-- Claude Sonnet: 0.35 → 66px -->
  <rect x="165" y="390" width="66" height="18" rx="9" fill="url(#speedGrad)" opacity="0.5"/>
  <text x="237" y="403" fill="rgba(255,255,255,0.6)" font-size="10">0.35</text>
  <!-- Gemini Pro: 0.27 → 51px -->
  <rect x="165" y="440" width="51" height="18" rx="9" fill="url(#speedGrad)" opacity="0.4"/>
  <text x="222" y="453" fill="rgba(255,255,255,0.6)" font-size="10">0.27</text>
  <!-- GPT-5.4: 0.23 → 43px -->
  <rect x="165" y="490" width="43" height="18" rx="9" fill="url(#speedGrad)" opacity="0.35"/>
  <text x="214" y="503" fill="rgba(255,255,255,0.6)" font-size="10">0.23</text>
  <!-- Opus: 0.14 → 26px -->
  <rect x="165" y="540" width="26" height="18" rx="9" fill="url(#speedGrad)" opacity="0.3"/>
  <text x="197" y="553" fill="rgba(255,255,255,0.6)" font-size="10">0.14</text>

  <!-- COST column tracks -->
  <rect x="365" y="290" width="190" height="18" rx="9" fill="rgba(255,255,255,0.06)"/>
  <rect x="365" y="340" width="190" height="18" rx="9" fill="rgba(255,255,255,0.06)"/>
  <rect x="365" y="390" width="190" height="18" rx="9" fill="rgba(255,255,255,0.06)"/>
  <rect x="365" y="440" width="190" height="18" rx="9" fill="rgba(255,255,255,0.06)"/>
  <rect x="365" y="490" width="190" height="18" rx="9" fill="rgba(255,255,255,0.06)"/>
  <rect x="365" y="540" width="190" height="18" rx="9" fill="rgba(255,255,255,0.06)"/>

  <!-- COST fill bars -->
  <!-- Cost priority: cheapest wins. Gemini Flash ($0.00175) → 0.94 → 178px winner -->
  <rect x="365" y="290" width="178" height="18" rx="9" fill="url(#costGrad)" filter="url(#glow2)"/>
  <text x="549" y="303" fill="#fbbf24" font-size="10" font-weight="700">0.94 ★</text>
  <!-- GPT Mini ($0.00525) → 0.82 → 155px -->
  <rect x="365" y="340" width="155" height="18" rx="9" fill="url(#costGrad)" opacity="0.75"/>
  <text x="526" y="353" fill="rgba(255,255,255,0.6)" font-size="10">0.82</text>
  <!-- Gemini Pro ($0.014) → 0.60 → 114px -->
  <rect x="365" y="390" width="114" height="18" rx="9" fill="url(#costGrad)" opacity="0.6"/>
  <text x="485" y="403" fill="rgba(255,255,255,0.6)" font-size="10">0.56</text>
  <!-- GPT-5.4 ($0.0175) → 0.52 → 98px -->
  <rect x="365" y="440" width="98" height="18" rx="9" fill="url(#costGrad)" opacity="0.5"/>
  <text x="469" y="453" fill="rgba(255,255,255,0.6)" font-size="10">0.52</text>
  <!-- Claude Sonnet ($0.018) → 0.50 → 95px -->
  <rect x="365" y="490" width="95" height="18" rx="9" fill="url(#costGrad)" opacity="0.45"/>
  <text x="466" y="503" fill="rgba(255,255,255,0.6)" font-size="10">0.50</text>
  <!-- Opus ($0.030) → 0.18 → 34px -->
  <rect x="365" y="540" width="34" height="18" rx="9" fill="url(#costGrad)" opacity="0.35"/>
  <text x="405" y="553" fill="rgba(255,255,255,0.6)" font-size="10">0.18</text>

  <!-- QUALITY column tracks -->
  <rect x="565" y="290" width="190" height="18" rx="9" fill="rgba(255,255,255,0.06)"/>
  <rect x="565" y="340" width="190" height="18" rx="9" fill="rgba(255,255,255,0.06)"/>
  <rect x="565" y="390" width="190" height="18" rx="9" fill="rgba(255,255,255,0.06)"/>
  <rect x="565" y="440" width="190" height="18" rx="9" fill="rgba(255,255,255,0.06)"/>
  <rect x="565" y="490" width="190" height="18" rx="9" fill="rgba(255,255,255,0.06)"/>
  <rect x="565" y="540" width="190" height="18" rx="9" fill="rgba(255,255,255,0.06)"/>

  <!-- QUALITY fill bars: GPT-5.4-mini wins (0.813 confirmed by live test) -->
  <!-- Gemini Flash: 0.41 → 78px -->
  <rect x="565" y="290" width="78" height="18" rx="9" fill="url(#qualGrad)" opacity="0.4"/>
  <text x="649" y="303" fill="rgba(255,255,255,0.5)" font-size="10">0.41</text>
  <!-- GPT Mini: 0.813 → 154px WINNER -->
  <rect x="565" y="340" width="154" height="18" rx="9" fill="url(#qualGrad)" filter="url(#glow2)"/>
  <text x="725" y="353" fill="#a78bfa" font-size="10" font-weight="700">0.813 ★</text>
  <!-- Claude Sonnet: 0.67 → 127px -->
  <rect x="565" y="390" width="127" height="18" rx="9" fill="url(#qualGrad)" opacity="0.7"/>
  <text x="698" y="403" fill="rgba(255,255,255,0.6)" font-size="10">0.67</text>
  <!-- Gemini Pro: 0.69 → 131px -->
  <rect x="565" y="440" width="131" height="18" rx="9" fill="url(#qualGrad)" opacity="0.75"/>
  <text x="702" y="453" fill="rgba(255,255,255,0.6)" font-size="10">0.69</text>
  <!-- GPT-5.4: 0.74 → 140px -->
  <rect x="565" y="490" width="140" height="18" rx="9" fill="url(#qualGrad)" opacity="0.85"/>
  <text x="711" y="503" fill="rgba(255,255,255,0.6)" font-size="10">0.74</text>
  <!-- Opus: 0.76 → 144px -->
  <rect x="565" y="540" width="144" height="18" rx="9" fill="url(#qualGrad)" opacity="0.9"/>
  <text x="715" y="553" fill="rgba(255,255,255,0.6)" font-size="10">0.76</text>

  <!-- BALANCED column tracks -->
  <rect x="775" y="290" width="190" height="18" rx="9" fill="rgba(255,255,255,0.06)"/>
  <rect x="775" y="340" width="190" height="18" rx="9" fill="rgba(255,255,255,0.06)"/>
  <rect x="775" y="390" width="190" height="18" rx="9" fill="rgba(255,255,255,0.06)"/>
  <rect x="775" y="440" width="190" height="18" rx="9" fill="rgba(255,255,255,0.06)"/>
  <rect x="775" y="490" width="190" height="18" rx="9" fill="rgba(255,255,255,0.06)"/>
  <rect x="775" y="540" width="190" height="18" rx="9" fill="rgba(255,255,255,0.06)"/>

  <!-- BALANCED fill bars: Gemini Flash wins with 0.68 → 129px -->
  <rect x="775" y="290" width="129" height="18" rx="9" fill="url(#balGrad)" filter="url(#glow2)"/>
  <text x="910" y="303" fill="#34d399" font-size="10" font-weight="700">0.68 ★</text>
  <!-- GPT Mini: 0.58 → 110px -->
  <rect x="775" y="340" width="110" height="18" rx="9" fill="url(#balGrad)" opacity="0.7"/>
  <text x="891" y="353" fill="rgba(255,255,255,0.6)" font-size="10">0.58</text>
  <!-- Claude Sonnet: 0.52 → 98px -->
  <rect x="775" y="390" width="98" height="18" rx="9" fill="url(#balGrad)" opacity="0.6"/>
  <text x="879" y="403" fill="rgba(255,255,255,0.6)" font-size="10">0.52</text>
  <!-- Gemini Pro: 0.48 → 91px -->
  <rect x="775" y="440" width="91" height="18" rx="9" fill="url(#balGrad)" opacity="0.5"/>
  <text x="872" y="453" fill="rgba(255,255,255,0.6)" font-size="10">0.48</text>
  <!-- GPT-5.4: 0.43 → 81px -->
  <rect x="775" y="490" width="81" height="18" rx="9" fill="url(#balGrad)" opacity="0.45"/>
  <text x="862" y="503" fill="rgba(255,255,255,0.6)" font-size="10">0.43</text>
  <!-- Opus: 0.28 → 53px -->
  <rect x="775" y="540" width="53" height="18" rx="9" fill="url(#balGrad)" opacity="0.35"/>
  <text x="834" y="553" fill="rgba(255,255,255,0.6)" font-size="10">0.28</text>

  <!-- ===== PRIORITY WEIGHT RADAR / BREAKDOWN ===== -->
  <text x="50" y="606" fill="rgba(255,255,255,0.8)" font-size="14" font-weight="700">Priority Weight Breakdown</text>

  <!-- Four priority mode cards -->
  <!-- SPEED card -->
  <rect x="50" y="620" width="230" height="160" rx="12" fill="rgba(239,68,68,0.1)" stroke="#ef4444" stroke-width="1.5"/>
  <text x="165" y="645" text-anchor="middle" fill="#fca5a5" font-size="14" font-weight="700">⚡ SPEED</text>
  <text x="165" y="665" text-anchor="middle" fill="rgba(255,255,255,0.5)" font-size="11">Real-time chat · Autocomplete</text>
  <!-- Mini bar chart -->
  <text x="80" y="690" fill="rgba(255,255,255,0.5)" font-size="10">Latency</text>
  <rect x="140" y="680" width="120" height="12" rx="6" fill="rgba(255,255,255,0.08)"/>
  <rect x="140" y="680" width="84" height="12" rx="6" fill="#ef4444"/>
  <text x="268" y="691" fill="#ef4444" font-size="10" font-weight="600">70%</text>
  <text x="80" y="712" fill="rgba(255,255,255,0.5)" font-size="10">Cost</text>
  <rect x="140" y="702" width="120" height="12" rx="6" fill="rgba(255,255,255,0.08)"/>
  <rect x="140" y="702" width="24" height="12" rx="6" fill="#f97316"/>
  <text x="268" y="713" fill="#f97316" font-size="10">20%</text>
  <text x="80" y="734" fill="rgba(255,255,255,0.5)" font-size="10">Quality</text>
  <rect x="140" y="724" width="120" height="12" rx="6" fill="rgba(255,255,255,0.08)"/>
  <rect x="140" y="724" width="12" height="12" rx="6" fill="#fbbf24"/>
  <text x="268" y="735" fill="#fbbf24" font-size="10">10%</text>
  <text x="165" y="768" text-anchor="middle" fill="rgba(255,255,255,0.4)" font-size="10" font-style="italic">Picks: Gemini Flash Lite</text>

  <!-- COST card -->
  <rect x="300" y="620" width="230" height="160" rx="12" fill="rgba(245,158,11,0.1)" stroke="#f59e0b" stroke-width="1.5"/>
  <text x="415" y="645" text-anchor="middle" fill="#fcd34d" font-size="14" font-weight="700">💰 COST</text>
  <text x="415" y="665" text-anchor="middle" fill="rgba(255,255,255,0.5)" font-size="11">Batch jobs · High volume</text>
  <text x="330" y="690" fill="rgba(255,255,255,0.5)" font-size="10">Latency</text>
  <rect x="390" y="680" width="120" height="12" rx="6" fill="rgba(255,255,255,0.08)"/>
  <rect x="390" y="680" width="24" height="12" rx="6" fill="#ef4444"/>
  <text x="518" y="691" fill="#ef4444" font-size="10">20%</text>
  <text x="330" y="712" fill="rgba(255,255,255,0.5)" font-size="10">Cost</text>
  <rect x="390" y="702" width="120" height="12" rx="6" fill="rgba(255,255,255,0.08)"/>
  <rect x="390" y="702" width="84" height="12" rx="6" fill="#f59e0b"/>
  <text x="518" y="713" fill="#f59e0b" font-size="10" font-weight="600">70%</text>
  <text x="330" y="734" fill="rgba(255,255,255,0.5)" font-size="10">Quality</text>
  <rect x="390" y="724" width="120" height="12" rx="6" fill="rgba(255,255,255,0.08)"/>
  <rect x="390" y="724" width="12" height="12" rx="6" fill="#fbbf24"/>
  <text x="518" y="735" fill="#fbbf24" font-size="10">10%</text>
  <text x="415" y="768" text-anchor="middle" fill="rgba(255,255,255,0.4)" font-size="10" font-style="italic">Picks: Gemini Flash Lite</text>

  <!-- QUALITY card -->
  <rect x="550" y="620" width="230" height="160" rx="12" fill="rgba(108,99,255,0.1)" stroke="#6c63ff" stroke-width="1.5"/>
  <text x="665" y="645" text-anchor="middle" fill="#a78bfa" font-size="14" font-weight="700">🎯 QUALITY</text>
  <text x="665" y="665" text-anchor="middle" fill="rgba(255,255,255,0.5)" font-size="11">Analysis · Summarization</text>
  <text x="580" y="690" fill="rgba(255,255,255,0.5)" font-size="10">Latency</text>
  <rect x="640" y="680" width="120" height="12" rx="6" fill="rgba(255,255,255,0.08)"/>
  <rect x="640" y="680" width="12" height="12" rx="6" fill="#ef4444"/>
  <text x="768" y="691" fill="#ef4444" font-size="10">10%</text>
  <text x="580" y="712" fill="rgba(255,255,255,0.5)" font-size="10">Cost</text>
  <rect x="640" y="702" width="120" height="12" rx="6" fill="rgba(255,255,255,0.08)"/>
  <rect x="640" y="702" width="24" height="12" rx="6" fill="#f59e0b"/>
  <text x="768" y="713" fill="#f59e0b" font-size="10">20%</text>
  <text x="580" y="734" fill="rgba(255,255,255,0.5)" font-size="10">Quality</text>
  <rect x="640" y="724" width="120" height="12" rx="6" fill="rgba(255,255,255,0.08)"/>
  <rect x="640" y="724" width="84" height="12" rx="6" fill="#6c63ff"/>
  <text x="768" y="735" fill="#a78bfa" font-size="10" font-weight="600">70%</text>
  <text x="665" y="768" text-anchor="middle" fill="rgba(255,255,255,0.4)" font-size="10" font-style="italic">Picks: GPT-5.4 Mini</text>

  <!-- BALANCED card -->
  <rect x="800" y="620" width="250" height="160" rx="12" fill="rgba(16,185,129,0.1)" stroke="#10b981" stroke-width="1.5"/>
  <text x="925" y="645" text-anchor="middle" fill="#34d399" font-size="14" font-weight="700">⚖ BALANCED</text>
  <text x="925" y="665" text-anchor="middle" fill="rgba(255,255,255,0.5)" font-size="11">General use · Default</text>
  <text x="825" y="690" fill="rgba(255,255,255,0.5)" font-size="10">Latency</text>
  <rect x="890" y="680" width="120" height="12" rx="6" fill="rgba(255,255,255,0.08)"/>
  <rect x="890" y="680" width="48" height="12" rx="6" fill="#ef4444"/>
  <text x="1018" y="691" fill="#ef4444" font-size="10">40%</text>
  <text x="825" y="712" fill="rgba(255,255,255,0.5)" font-size="10">Cost</text>
  <rect x="890" y="702" width="120" height="12" rx="6" fill="rgba(255,255,255,0.08)"/>
  <rect x="890" y="702" width="36" height="12" rx="6" fill="#f59e0b"/>
  <text x="1018" y="713" fill="#f59e0b" font-size="10">30%</text>
  <text x="825" y="734" fill="rgba(255,255,255,0.5)" font-size="10">Quality</text>
  <rect x="890" y="724" width="120" height="12" rx="6" fill="rgba(255,255,255,0.08)"/>
  <rect x="890" y="724" width="36" height="12" rx="6" fill="#10b981"/>
  <text x="1018" y="735" fill="#34d399" font-size="10">30%</text>
  <text x="925" y="768" text-anchor="middle" fill="rgba(255,255,255,0.4)" font-size="10" font-style="italic">Picks: Gemini Flash Lite</text>

  <!-- Footer -->
  <text x="550" y="808" text-anchor="middle" fill="rgba(255,255,255,0.25)" font-size="10">Low-Latency Model Router · All scores are normalized within the candidate set · Weights auto-sum to 1.0</text>
</svg>
